Coordinates
version=1
nRows=24
nColumns=24
inDegrees=yes

Units are S.I. units (second, meters, Newtons, ...)
Angles are in degrees.

endheader
time	pelvis_tilt	pelvis_list	pelvis_rotation	pelvis_tx	pelvis_ty	pelvis_tz	hip_flexion_r	hip_adduction_r	hip_rotation_r	knee_angle_r	ankle_angle_r	subtalar_angle_r	mtp_angle_r	hip_flexion_l	hip_adduction_l	hip_rotation_l	knee_angle_l	ankle_angle_l	subtalar_angle_l	mtp_angle_l	lumbar_extension	lumbar_bending	lumbar_rotation
      2.55000000	    -11.66548095	     11.22908528	     -4.48939256	     -2.29404346	     -0.03693080	      0.47240180	     14.83281640	    -10.78104666	      3.73464041	    -56.82746369	    -13.56154999	     -1.82939621	     16.32244237	     29.51659277	     14.37380707	      3.71642455	    -23.91065067	     -2.44514814	     -7.06202508	     -2.90027611	     12.07928899	    -11.77473962	     13.23236501
      2.55500000	    -11.62944440	     11.17826757	     -4.51421570	     -2.28676469	     -0.03552772	      0.47219473	     15.87034730	    -10.73097255	      3.69828661	    -57.54933510	    -13.16418856	     -1.92418480	     16.51792113	     28.72584071	     14.38011654	      3.82918096	    -23.44326373	     -2.13690894	     -6.97161196	     -2.78141568	     12.01117710	    -11.68497542	     13.07267801
      2.56000000	    -11.63221761	     11.09396317	     -4.54713942	     -2.27956638	     -0.03416746	      0.47199158	     16.94785219	    -10.62586728	      3.69132871	    -58.19512489	    -12.69672027	     -1.87514360	     16.78909340	     27.97911930	     14.34164363	      3.93993064	    -22.97549592	     -1.84485268	     -6.88290658	     -2.65114777	     11.97650366	    -11.55411553	     12.91156635
      2.56500000	    -11.66775833	     10.99352526	     -4.57146775	     -2.27244295	     -0.03285013	      0.47176866	     18.05237953	    -10.49071217	      3.69382186	    -58.75867347	    -12.18715259	     -1.75473295	     17.16434445	     27.27220902	     14.28721109	      4.03927112	    -22.50497702	     -1.61509107	     -6.85267589	     -2.54323962	     11.96364182	    -11.40269369	     12.69459715
      2.57000000	    -11.68282007	     10.86932128	     -4.57080198	     -2.26528927	     -0.03149936	      0.47150055	     19.10131763	    -10.33830301	      3.65426447	    -59.21868098	    -11.67789309	     -1.61784488	     17.54392579	     26.51434882	     14.23086991	      4.22880866	    -22.00230160	     -1.39565648	     -6.85540181	     -2.47561232	     11.92683230	    -11.23035817	     12.47958361
      2.57500000	    -11.69490099	     10.71789679	     -4.55494981	     -2.25815505	     -0.03014736	      0.47118715	     20.12141172	    -10.15617666	      3.59801234	    -59.58703334	    -11.13802690	     -1.44605597	     17.93406530	     25.74348452	     14.15807130	      4.45574558	    -21.48969448	     -1.19451379	     -6.88737943	     -2.44546413	     11.87823206	    -11.03068999	     12.24237914
      2.58000000	    -11.70858668	     10.56519127	     -4.51988156	     -2.25100499	     -0.02879963	      0.47082563	     21.12298756	     -9.97736709	      3.53012578	    -59.86782009	    -10.61295082	     -1.25007345	     18.37355613	     24.95586548	     14.09384852	      4.71981190	    -20.94590847	     -1.02456900	     -6.94618413	     -2.45650644	     11.83183618	    -10.82974086	     11.96984912
      2.58500000	    -11.71110860	     10.38453448	     -4.46557827	     -2.24388107	     -0.02746001	      0.47041895	     22.08300595	     -9.77267146	      3.43636519	    -60.05660381	    -10.06377737	     -1.07229313	     18.82857987	     24.14815964	     14.01228194	      5.02949534	    -20.39654122	     -0.86323124	     -7.02503883	     -2.49923433	     11.76267032	    -10.60440659	     11.69028159
      2.59000000	    -11.71537308	     10.14943436	     -4.40696467	     -2.23676121	     -0.02610762	      0.47000880	     23.01258494	     -9.49950345	      3.33196692	    -60.15400630	     -9.52340963	     -0.90038624	     19.14597204	     23.33560881	     13.86925484	      5.31953073	    -19.84143832	     -0.69473918	     -7.08708951	     -2.53864212	     11.69112483	    -10.32098547	     11.37773139
      2.59500000	    -11.70974448	      9.91922015	     -4.31580122	     -2.22962786	     -0.02478501	      0.46953616	     23.90781207	     -9.24899918	      3.20054596	    -60.17586233	     -8.97504702	     -0.70915125	     19.47018276	     22.49769142	     13.74405917	      5.66288732	    -19.26294654	     -0.54425939	     -7.15555864	     -2.59668448	     11.60659358	    -10.05015090	     11.03525826
      2.60000000	    -11.67933396	      9.69268715	     -4.20574709	     -2.22250841	     -0.02347642	      0.46902959	     24.75806359	     -9.01306580	      3.05706122	    -60.12301284	     -8.45651208	     -0.53898246	     19.79591343	     21.62142863	     13.62861096	      6.04483277	    -18.66060453	     -0.41158678	     -7.22958390	     -2.67003723	     11.49069730	     -9.79119678	     10.66314231
      2.60500000	    -11.64937708	      9.43468910	     -4.09239308	     -2.21539423	     -0.02220188	      0.46853241	     25.58069708	     -8.73993086	      2.90292504	    -59.98653481	     -7.94747050	     -0.41062055	     20.05246134	     20.74518022	     13.47134861	      6.40212999	    -18.05558680	     -0.27600056	     -7.29028058	     -2.72428214	     11.37447588	     -9.49968303	     10.29378010
      2.61000000	    -11.62599775	      9.15780989	     -3.97140001	     -2.20826406	     -0.02096722	      0.46802554	     26.38373393	     -8.45009395	      2.73583790	    -59.76971130	     -7.46040041	     -0.30445408	     20.23714797	     19.87342296	     13.28696258	      6.73072249	    -17.44104945	     -0.14821839	     -7.33564860	     -2.76262557	     11.26851162	     -9.18789665	      9.92396588
      2.61500000	    -11.55153546	      8.89536649	     -3.82828652	     -2.20115161	     -0.01975389	      0.46751278	     27.11445592	     -8.19389736	      2.55090416	    -59.49050431	     -7.01010857	     -0.22934121	     20.38708636	     18.93192324	     13.12316536	      7.13675506	    -16.79870449	     -0.03606640	     -7.38819136	     -2.78920218	     11.10331208	     -8.90707681	      9.53045917
      2.62000000	    -11.52941641	      8.60489249	     -3.69420066	     -2.19405891	     -0.01864733	      0.46701512	     27.88409896	     -7.89450412	      2.37997413	    -59.14197181	     -6.59137953	     -0.17140214	     20.45598491	     18.06488969	     12.90985964	      7.45662118	    -16.17557788	      0.08447194	     -7.41505430	     -2.80099826	     10.99435200	     -8.58688424	      9.14007826
      2.62500000	    -11.44833028	      8.32554489	     -3.53878705	     -2.18700472	     -0.01756707	      0.46652668	     28.57136598	     -7.62705574	      2.18442143	    -58.73296941	     -6.20143909	     -0.15507201	     20.45622147	     17.12442944	     12.71341623	      7.87263969	    -15.53557450	      0.19723205	     -7.46262215	     -2.80716270	     10.81341640	     -8.29460332	      8.71440711
      2.63000000	    -11.42277742	      8.02805005	     -3.39788178	     -2.17991040	     -0.01658288	      0.46605040	     29.29646218	     -7.33401210	      1.99816975	    -58.24752716	     -5.86476687	     -0.14101891	     20.40821721	     16.25132882	     12.47849892	      8.20973037	    -14.89914087	      0.29787987	     -7.50031731	     -2.83399187	     10.70705535	     -7.97026919	      8.33946726
      2.63500000	    -11.38016609	      7.73227923	     -3.24571639	     -2.17285843	     -0.01567632	      0.46559298	     29.98545607	     -7.05175867	      1.80515080	    -57.70374468	     -5.55247066	     -0.15836468	     20.30312433	     15.36289820	     12.24251856	      8.60198838	    -14.26713561	      0.40664617	     -7.55598731	     -2.87730060	     10.57504513	     -7.65815487	      7.94031147
      2.64000000	    -11.30188626	      7.43986075	     -3.08509103	     -2.16585686	     -0.01483529	      0.46516116	     30.61783271	     -6.78504775	      1.59833403	    -57.10298842	     -5.25112362	     -0.21201734	     20.11041384	     14.44007584	     12.00823210	      9.05000945	    -13.64101817	      0.51909661	     -7.65155204	     -2.95534031	     10.39373281	     -7.36026752	      7.50296516
      2.64500000	    -11.24310403	      7.14977909	     -2.93985801	     -2.15883259	     -0.01407285	      0.46475726	     31.25416059	     -6.51895920	      1.40676444	    -56.44022325	     -4.98788464	     -0.23688385	     19.84156989	     13.53586225	     11.76063534	      9.49370514	    -13.00567542	      0.62109985	     -7.74725469	     -3.08073203	     10.24563894	     -7.05879102	      7.13200730
      2.65000000	    -11.23453952	      6.84820189	     -2.78413648	     -2.15184044	     -0.01345802	      0.46435136	     31.92079632	     -6.24858609	      1.20386312	    -55.70872445	     -4.72571484	     -0.27292308	     19.59160010	     12.71089668	     11.49350120	      9.89463122	    -12.40689718	      0.74360764	     -7.84217472	     -3.21863114	     10.14711752	     -6.74401504	      6.72496223
      2.65500000	    -11.22246448	      6.55010441	     -2.63522905	     -2.14485625	     -0.01291992	      0.46397195	     32.56265156	     -5.98653903	      1.00674940	    -54.91233133	     -4.48318075	     -0.30032421	     19.30342265	     11.88331723	     11.21922066	     10.31152086	    -11.80649884	      0.86835569	     -7.94181821	     -3.38586294	     10.04710935	     -6.43349921	      6.33784401
      2.66000000	    -11.22294216	      6.25581840	     -2.48881174	     -2.13788856	     -0.01248424	      0.46361510	     33.19542534	     -5.73401096	      0.81240701	    -54.05103681	     -4.24292136	     -0.31334107	     18.99105418	     11.07867512	     10.93788069	     10.71701955	    -11.21493589	      1.00385826	     -8.02868430	     -3.55534307	      9.96049850	     -6.12891751	      5.95994195
      2.66500000	    -11.23851891	      5.96484822	     -2.34586996	     -2.13093405	     -0.01214821	      0.46327529	     33.81971967	     -5.49059806	      0.62112041	    -53.12094684	     -4.00670136	     -0.30689951	     18.66376667	     10.30035444	     10.64813986	     11.09770122	    -10.63211321	      1.14838778	     -8.09093975	     -3.70626246	      9.89079545	     -5.82745795	      5.59311933
